<?xml version="1.0" encoding="utf-8"?>
<!-- Generator: Adobe Illustrator 16.0.0, SVG Export Plug-In . SVG Version: 6.00 Build 0)  -->
<!DOCTYPE svg PUBLIC "-//W3C//DTD SVG 1.1//EN" "http://www.w3.org/Graphics/SVG/1.1/DTD/svg11.dtd">
<svg version="1.1" id="Layer_1" xmlns="http://www.w3.org/2000/svg" xmlns:xlink="http://www.w3.org/1999/xlink" x="0px" y="0px"
	 width="595.276px" height="841.89px" viewBox="0 0 595.276 841.89" enable-background="new 0 0 595.276 841.89"
	 xml:space="preserve">
<g>
	<defs>
		<rect id="SVGID_1_" width="595.276" height="841.89"/>
	</defs>
	<clipPath id="SVGID_2_">
		<use xlink:href="#SVGID_1_"  overflow="visible"/>
	</clipPath>
	<path clip-path="url(#SVGID_2_)" fill="#ED1A3B" d="M291.677,466.015c39.138,0,70.866-31.728,70.866-70.866
		c0-39.139-31.728-70.866-70.866-70.866s-70.866,31.727-70.866,70.866C220.812,434.288,252.539,466.015,291.677,466.015"/>
	<path clip-path="url(#SVGID_2_)" d="M314.173,360.439c-7.674-2.497-11.911-4.057-12.714-4.684
		c-0.804-0.623-1.564-2.183-2.275-4.684c-0.715-1.962-1.519-2.945-2.409-2.945c-1.966,0-3.84,1.519-5.621,4.551
		c-2.322,4.282-3.48,10.351-3.48,18.201c0,8.21,2.141,14.011,6.424,17.398c2.141,1.786,6.424,3.572,12.848,5.354
		c5.354,1.43,8.699,3.479,10.038,6.156c1.338,2.677,2.007,5.981,2.007,9.904c0,4.107-0.849,9.368-2.543,15.792
		c-1.697,6.424-2.543,10.084-2.543,10.975c0,0.895,0.269,1.431,0.804,1.605c3.388,0.716,7.094-5.662,11.108-19.138
		c4.016-13.471,6.022-25.738,6.022-36.804c0-6.779-0.983-11.33-2.944-13.651C326.218,365.437,321.308,362.76,314.173,360.439"/>
</g>
</svg>
